#Comment line ignore any data following # character 
#Hierarchical Translation and Rotation (.htr) file 
[Header]	
#Header keywords are followed by a single value 
FileType HTR		#Single word string
DataType HTRS		#Translation followed by rotation and scale data
FileVersion 1		#integer
NumSegments 25		#integer
NumFrames 4		#integer
DataFrameRate 30		#integer, data frame rate in this file
EulerRotationOrder ZYX
CalibrationUnits mm
RotationUnits Degrees
GlobalAxisofGravity Y
BoneLengthAxis Y
ScaleFactor 1.00
[SegmentNames&Hierarchy]
#CHILD	PARENT
BN_Tick_Root GLOBAL
BN_Torso BN_Tick_Root
BN_L_Leg_Front01 BN_Torso
BN_L_Leg_Rear01 BN_Torso
BN_MetalTop BN_Torso
BN_Neck BN_Torso
BN_R_Leg_Front01 BN_Torso
BN_R_Leg_Rear01 BN_Torso
BN_Sack BN_Torso
BN_L_Leg_Front02 BN_L_Leg_Front01
BN_L_Leg_Front03 BN_L_Leg_Front02
BN_L_Leg_Rear02 BN_L_Leg_Rear01
BN_L_Leg_Rear03 BN_L_Leg_Rear02
BN_Head BN_Neck
BN_Needle BN_Head
BN_R_Leg_Front02 BN_R_Leg_Front01
BN_R_Leg_Front03 BN_R_Leg_Front02
BN_R_Leg_Rear02 BN_R_Leg_Rear01
BN_R_Leg_Rear03 BN_R_Leg_Rear02
BN_SackDef01 BN_Sack
BN_SackDef02 BN_Sack
BN_SackDef03 BN_Sack
BN_SackDef04 BN_Sack
BN_SackDef05 BN_Sack
BN_SackDef06 BN_Sack
[BasePosition]
#SegmentName Tx, Ty, Tz, Rx, Ry, Rz, BoneLength
BN_Tick_Root 0.000000 0.000000 0.000000 -90.000000 0.000000 0.000000 10.000000 
BN_Torso 0.000000 0.000000 0.000000 0.000000 0.000000 0.000000 10.000000 
BN_L_Leg_Front01 0.000000 0.000000 0.000000 0.000000 0.000000 0.000000 10.000000 
BN_L_Leg_Rear01 0.000000 0.000000 0.000000 0.000000 0.000000 0.000000 10.000000 
BN_MetalTop 0.000000 0.000000 0.000000 0.000000 0.000000 0.000000 10.000000 
BN_Neck 0.000000 0.000000 0.000000 0.000000 0.000000 0.000000 10.000000 
BN_R_Leg_Front01 0.000000 0.000000 0.000000 0.000000 0.000000 0.000000 10.000000 
BN_R_Leg_Rear01 0.000000 0.000000 0.000000 0.000000 0.000000 0.000000 10.000000 
BN_Sack 0.000000 0.000000 0.000000 0.000000 0.000000 0.000000 10.000000 
BN_L_Leg_Front02 0.000000 0.000000 0.000000 0.000000 0.000000 0.000000 10.000000 
BN_L_Leg_Front03 0.000000 0.000000 0.000000 0.000000 0.000000 0.000000 10.000000 
BN_L_Leg_Rear02 0.000000 0.000000 0.000000 0.000000 0.000000 0.000000 10.000000 
BN_L_Leg_Rear03 0.000000 0.000000 0.000000 0.000000 0.000000 0.000000 10.000000 
BN_Head 0.000000 0.000000 0.000000 0.000000 0.000000 0.000000 10.000000 
BN_Needle 0.000000 0.000000 0.000000 0.000000 0.000000 0.000000 10.000000 
BN_R_Leg_Front02 0.000000 0.000000 0.000000 0.000000 0.000000 0.000000 10.000000 
BN_R_Leg_Front03 0.000000 0.000000 0.000000 0.000000 0.000000 0.000000 10.000000 
BN_R_Leg_Rear02 0.000000 0.000000 0.000000 0.000000 0.000000 0.000000 10.000000 
BN_R_Leg_Rear03 0.000000 0.000000 0.000000 0.000000 0.000000 0.000000 10.000000 
BN_SackDef01 0.000000 0.000000 0.000000 0.000000 0.000000 0.000000 10.000000 
BN_SackDef02 0.000000 0.000000 0.000000 0.000000 0.000000 0.000000 10.000000 
BN_SackDef03 0.000000 0.000000 0.000000 0.000000 0.000000 0.000000 10.000000 
BN_SackDef04 0.000000 0.000000 0.000000 0.000000 0.000000 0.000000 10.000000 
BN_SackDef05 0.000000 0.000000 0.000000 0.000000 0.000000 0.000000 10.000000 
BN_SackDef06 0.000000 0.000000 0.000000 0.000000 0.000000 0.000000 10.000000 
#Beginning of Data. Separated by tabs
#Fr	Tx	Ty	Tz	Rx	Ry	Rz	SF
[BN_Tick_Root]
19 0.000000 -0.000040 0.000000 0.000000 0.000000 -0.000020 0.000040
20 0.000000 -0.000042 0.000000 0.000000 0.000000 -0.000020 0.000042
21 0.000000 -0.000044 0.000000 0.000000 0.000000 -0.000020 0.000044
22 0.000000 -0.000046 0.000000 0.000000 0.000000 -0.000020 0.000046
[BN_Torso]
19 47.472626 66.027916 319.563171 15.249945 -1.935800 11.475711 329.748322
20 69.323593 66.036125 325.824524 15.451342 -1.523990 10.441959 339.600006
21 80.063240 66.046799 333.964264 15.881443 -0.984440 9.097795 349.720490
22 80.062668 66.057465 342.104004 16.626270 -0.446101 7.749796 357.503540
[BN_L_Leg_Front01]
19 -68.477791 10.734189 -26.804373 31.116676 74.742622 -160.428787 74.316254
20 -68.477791 10.734189 -26.804373 25.093317 73.212776 -158.960968 74.316254
21 -68.477791 10.734189 -26.804373 25.073181 72.444733 -154.547012 74.316254
22 -68.477791 10.734189 -26.804373 30.148169 72.158859 -147.751297 74.316254
[BN_L_Leg_Rear01]
19 -72.133743 -73.994843 -18.268616 82.138168 54.063480 -137.487167 104.939293
20 -72.133743 -73.994843 -18.268616 85.671532 58.763950 -138.140625 104.939293
21 -72.133743 -73.994843 -18.268616 86.806320 58.601719 -136.918442 104.939293
22 -72.133743 -73.994843 -18.268616 88.003448 58.779911 -133.514786 104.939293
[BN_MetalTop]
19 0.000008 13.737477 26.403606 90.899330 -31.752371 -97.499039 29.763546
20 0.000008 13.737477 26.403606 87.050835 -33.893906 -96.889114 29.763546
21 0.000008 13.737477 26.403606 82.309944 -35.235043 -96.010124 29.763546
22 0.000008 13.737477 26.403606 78.267403 -35.916691 -95.190002 29.763546
[BN_Neck]
19 0.000014 95.233284 10.002091 -89.999672 -65.297531 89.999657 95.757088
20 0.000014 95.233284 10.002091 -89.999672 -65.297531 89.999657 95.757088
21 0.000014 95.233284 10.002091 -89.999672 -65.297531 89.999657 95.757088
22 0.000014 95.233284 10.002091 -89.999672 -65.297531 89.999657 95.757088
[BN_R_Leg_Front01]
19 68.477768 10.734107 -26.804314 -14.081670 69.031586 -40.359173 74.316193
20 68.477768 10.734107 -26.804314 -23.868843 70.563805 -43.367004 74.316193
21 68.477768 10.734107 -26.804314 -30.497826 70.963615 -45.111229 74.316193
22 68.477768 10.734107 -26.804314 -33.282684 70.411072 -46.003033 74.316193
[BN_R_Leg_Rear01]
19 72.133751 -73.994873 -18.268644 -72.271561 52.052925 -75.315422 104.939331
20 72.133751 -73.994873 -18.268644 -69.993004 53.155506 -77.347992 104.939331
21 72.133751 -73.994873 -18.268644 -68.794395 53.801517 -77.186729 104.939331
22 72.133751 -73.994873 -18.268644 -69.056335 53.795666 -75.435738 104.939331
[BN_Sack]
19 -0.000000 -78.024918 33.657791 95.039589 1.941188 -111.502686 84.974907
20 -0.000000 -78.024918 33.657791 93.308517 5.520145 -109.234810 84.974907
21 -0.000000 -78.024918 33.657791 92.782242 7.617865 -105.398010 84.974907
22 -0.000000 -78.024918 33.657791 93.536697 5.046946 -101.645760 84.974907
[BN_L_Leg_Front02]
19 142.805023 -0.000015 -0.000104 0.180141 0.316172 -94.473007 142.805023
20 142.805023 -0.000015 -0.000104 0.189694 0.267530 -89.636864 142.805023
21 142.805023 -0.000015 -0.000104 0.198081 0.218116 -85.236565 142.805023
22 142.805023 -0.000015 -0.000104 0.198656 0.188589 -82.188652 142.805023
[BN_L_Leg_Front03]
19 124.143021 -0.000045 0.000007 0.355631 -0.439650 102.397957 124.143021
20 124.143021 -0.000045 0.000007 0.354627 -0.448003 96.657265 124.143021
21 124.143021 -0.000045 0.000007 0.350908 -0.447828 91.196281 124.143021
22 124.143021 -0.000045 0.000007 0.352292 -0.449941 87.294586 124.143021
[BN_L_Leg_Rear02]
19 139.939041 0.000075 -0.000022 0.087984 -0.219022 92.780106 139.939041
20 139.939041 0.000075 -0.000022 0.112459 -0.208870 85.281433 139.939041
21 139.939041 0.000075 -0.000022 0.122748 -0.201159 81.368774 139.939041
22 139.939041 0.000075 -0.000022 0.129726 -0.194962 79.175705 139.939041
[BN_L_Leg_Rear03]
19 142.839615 0.000179 -0.000060 0.000430 -0.002307 -111.119751 142.839615
20 142.839615 0.000179 -0.000060 0.000244 -0.002335 -101.921616 142.839615
21 142.839615 0.000179 -0.000060 0.000140 -0.002343 -96.816551 142.839615
22 142.839615 0.000179 -0.000060 0.000079 -0.002346 -93.879814 142.839615
[BN_Head]
19 57.062447 -0.000030 0.000000 6.966529 23.972481 57.071648 57.062447
20 57.062447 -0.000030 0.000000 10.437972 22.630362 58.631390 57.062447
21 57.062447 -0.000030 0.000000 12.004075 20.986759 60.437340 57.062447
22 57.062447 -0.000030 0.000000 10.874959 19.419979 63.263058 57.062447
[BN_Needle]
19 33.915203 69.677513 -0.000041 0.000003 0.000030 87.896805 77.493202
20 33.915199 69.677513 -0.000041 0.000003 0.000030 87.896805 77.493202
21 33.915195 69.677513 -0.000041 0.000003 0.000030 87.896805 77.493202
22 33.915192 69.677513 -0.000040 0.000003 0.000030 87.896805 77.493195
[BN_R_Leg_Front02]
19 142.804947 -0.000060 0.000060 -0.192225 0.260656 89.022682 142.804947
20 142.804947 -0.000060 0.000060 -0.190378 0.269008 89.836952 142.804947
21 142.804947 -0.000060 0.000060 -0.190654 0.248664 88.096962 142.804947
22 142.804947 -0.000060 0.000060 -0.199710 0.218832 85.012741 142.804947
[BN_R_Leg_Front03]
19 124.143005 -0.000060 -0.000156 -0.351784 -0.444216 -95.904785 124.143005
20 124.143005 -0.000060 -0.000156 -0.351614 -0.443974 -96.899887 124.143005
21 124.143005 -0.000060 -0.000156 -0.355885 -0.447689 -94.767380 124.143005
22 124.143005 -0.000060 -0.000156 -0.353185 -0.445809 -90.909836 124.143005
[BN_R_Leg_Rear02]
19 139.939011 -0.000149 0.000015 -0.121936 -0.203458 -82.523811 139.939011
20 139.939011 -0.000149 0.000015 -0.121163 -0.203919 -82.958778 139.939011
21 139.939011 -0.000149 0.000015 -0.123041 -0.202791 -81.900253 139.939011
22 139.939011 -0.000149 0.000015 -0.129318 -0.197098 -80.143860 139.939011
[BN_R_Leg_Rear03]
19 142.839417 0.000075 0.000119 0.002341 -0.000171 98.343933 142.839417
20 142.839417 0.000075 0.000119 0.002340 -0.000182 98.917854 142.839417
21 142.839417 0.000075 0.000119 0.002342 -0.000154 97.530945 142.839417
22 142.839417 0.000075 0.000119 0.002345 -0.000106 95.181572 142.839417
[BN_SackDef01]
19 249.782349 -3.760669 42.949486 -128.408218 -44.374973 -11.740845 253.475876
20 249.782349 -3.760671 42.949486 -128.408218 -44.374973 -11.740845 253.475876
21 249.782349 -3.760672 42.949486 -128.408218 -44.374973 -11.740845 253.475876
22 249.782349 -3.760674 42.949486 -128.408218 -44.374973 -11.740845 253.475876
[BN_SackDef02]
19 138.789810 -62.131641 45.674431 32.077126 -27.375721 -88.781525 158.773758
20 138.789810 -62.131641 45.674431 32.077126 -27.375721 -88.781525 158.773758
21 138.789810 -62.131641 45.674435 32.077126 -27.375721 -88.781525 158.773773
22 138.789810 -62.131641 45.674435 32.077126 -27.375721 -88.781525 158.773773
[BN_SackDef03]
19 249.782303 -3.760636 -42.949627 18.144459 44.375008 -11.740894 253.475861
20 249.782303 -3.760636 -42.949627 18.144459 44.375008 -11.740894 253.475861
21 249.782303 -3.760635 -42.949627 18.144459 44.375008 -11.740894 253.475861
22 249.782303 -3.760635 -42.949627 18.144459 44.375008 -11.740894 253.475861
[BN_SackDef04]
19 138.789810 -62.131550 -45.674412 146.059982 27.375723 -88.781555 158.773727
20 138.789810 -62.131550 -45.674412 146.059982 27.375723 -88.781555 158.773727
21 138.789810 -62.131550 -45.674408 146.059982 27.375723 -88.781555 158.773727
22 138.789810 -62.131550 -45.674408 146.059982 27.375723 -88.781555 158.773727
[BN_SackDef05]
19 118.790169 46.167183 -63.831203 0.155741 51.314110 90.605110 142.537491
20 118.790169 46.167183 -63.831203 0.155741 51.314110 90.605110 142.537491
21 118.790169 46.167183 -63.831203 0.155741 51.314110 90.605110 142.537491
22 118.790169 46.167183 -63.831203 0.155741 51.314110 90.605110 142.537491
[BN_SackDef06]
19 118.790230 46.167259 63.831188 152.058487 -51.314072 90.605019 142.537567
20 118.790230 46.167259 63.831188 152.058487 -51.314072 90.605019 142.537567
21 118.790230 46.167255 63.831188 152.058487 -51.314072 90.605019 142.537552
22 118.790230 46.167255 63.831188 152.058487 -51.314072 90.605019 142.537552
